# xmcd CD database file
#
# Track frame offsets:
#	150
#	24804
#	68032
#	92027
#	116546
#	153581
#	170604
#	190577
#	216059
#	243111
#
# Disc length: 3601 seconds
#
# Revision: 0
# Processed by: cddbd v1.5.2PL0 Copyright (c) Steve Scherf et al.
# Submitted via: CDex 1.70beta2
#
DISCID=760e0f0a
DTITLE=Various Artist - NISSAN 180SX SOUND SELECTION
DYEAR=1985
DGENRE=Jazz
TTITLE0=テイク・ファイブ(デイヴ・ブルーベック)
TTITLE1=モーニン(アート・ブレイキー&ジャズメッセンジャース)
TTITLE2=ファイブ･スポット･アフター･ダーク(カーティス･フラー)
TTITLE3=ユード･ビー･ソー･ナイス･トゥ･カム･ホーム･トゥ(アート･ペッパー)
TTITLE4=リカード･ボサ･ノヴァ(ハンク･モブレー)
TTITLE5=ホワッツニュー(J･コルトレーン)
TTITLE6=クレオパトラの夢(B･パウエル)
TTITLE7=サテンドール(マッコイ･タイナー)
TTITLE8=枯葉(B･エバンス)
TTITLE9=マイ･ファニーバレンタイン(マイルスディヴィス)
EXTD=YEAR: 1985
EXTT0=
EXTT1=
EXTT2=
EXTT3=
EXTT4=
EXTT5=
EXTT6=
EXTT7=
EXTT8=
EXTT9=
PLAYORDER=
